<svg id="Layer_1" data-name="Layer 1" xmlns="http://www.w3.org/2000/svg" viewBox="0 0 595.3 336.19"><defs><style>.cls-1{opacity:0.2;}.cls-2{fill:#149ed8;}.cls-3{fill:#24428f;}.cls-4,.cls-5,.cls-7{fill:none;}.cls-4,.cls-5{stroke:#24428f;}.cls-4{stroke-width:21.74px;}.cls-5{stroke-width:34.79px;}.cls-6{fill:#fff;}.cls-7{stroke:#fff;stroke-width:4.35px;}</style></defs><title>fans-of-LeSS-logo-white-background</title><g class="cls-1"><path class="cls-2" d="M151.75,202.29a103.6,103.6,0,0,0-1.95,32.44L67.36,245.15a186.55,186.55,0,0,1,3.87-63.34Z" transform="translate(-66.24 -38.37)"/><path class="cls-2" d="M68.12,251.21l82.44-10.42a103.74,103.74,0,0,0,11.2,33.28L89.87,315.82A186.52,186.52,0,0,1,68.12,251.21Z" transform="translate(-66.24 -38.37)"/><path class="cls-2" d="M169.13,163.88a102.53,102.53,0,0,0-15.87,32.48L72.7,175.87A185.83,185.83,0,0,1,103.51,113Z" transform="translate(-66.24 -38.37)"/><path class="cls-2" d="M164.81,279.37a102.83,102.83,0,0,0,22.11,25.23L136,370.22a185.69,185.69,0,0,1-43-49.13Z" transform="translate(-66.24 -38.37)"/><path class="cls-2" d="M107.25,108.15a185.84,185.84,0,0,1,51-44.16l40.88,72.33a102.66,102.66,0,0,0-26.28,22.73Z" transform="translate(-66.24 -38.37)"/><path class="cls-2" d="M279.17,124.83a103.79,103.79,0,0,0-36.42-2.9L232.33,39.49a186.54,186.54,0,0,1,70.49,5.7Z" transform="translate(-66.24 -38.37)"/><path class="cls-2" d="M236.68,122.7a103.66,103.66,0,0,0-32.2,10.63L163.6,61a186.63,186.63,0,0,1,62.66-20.71Z" transform="translate(-66.24 -38.37)"/><path class="cls-2" d="M313.59,141.26A103,103,0,0,0,285,126.58L308.69,46.9a186,186,0,0,1,55.8,28.74Z" transform="translate(-66.24 -38.37)"/><path class="cls-2" d="M368,78.33,139.49,372.91c-.78-.55-1.5-1.18-2.26-1.75L246.66,230.07l-82.92,48.15c-.55-.86-1.08-1.73-1.6-2.6l83.25-48.36L149,239.46c-.17-1-.32-2-.46-3l96-12.13-94.37-24c.22-1,.46-2,.71-3l95.11,24.19-77.71-60.27c.31-.41.59-.83.91-1.23s.64-.79,1-1.18l77.51,60.11-48.17-85.23c.89-.51,1.79-1,2.69-1.46l48.06,85L238,121c1-.12,2-.22,3-.31l12.23,96.7,27.47-92.52c1,.3,1.93.64,2.9,1l-27.2,91.58L365.7,76.57C366.44,77.17,367.23,77.71,368,78.33Z" transform="translate(-66.24 -38.37)"/><rect class="cls-2" x="67.86" y="224.03" width="372.8" height="4.01" transform="translate(522.45 125.28) rotate(127.8)"/><path class="cls-2" d="M255.49,221.77l30.94,11.95a4.9,4.9,0,0,1,3.21,7.86l-11.67,15a4.9,4.9,0,0,1-8.41-1.15l-19.27-27A4.9,4.9,0,0,1,255.49,221.77Z" transform="translate(-66.24 -38.37)"/></g><path class="cls-3" d="M463.73,208.38v21.37l14.12-4.46,15.79-4.83,7.62-2.42V207.45c0-25.83-11.33-37.35-36.61-37.35H406.12c-25.83,0-36.42,11.33-36.42,39.39v10.59c0,27.88,10.59,39.4,36.42,39.4h58.16V274h-60V251.3l-13.56,3.53-17.29,4.46-8.17,2V273c0,27.88,10.59,39.4,36.61,39.4H466c25.83,0,36.42-11.34,36.42-39.4V259.48c0-27.87-10.59-39.4-36.42-39.4H407.61V208.19c18.76.19,37.35.19,56.12.19Z" transform="translate(-66.24 -38.37)"/><path class="cls-4" d="M463.73,208.38v21.37l14.12-4.46,15.79-4.83,7.62-2.42V207.45c0-25.83-11.33-37.35-36.61-37.35H406.12c-25.83,0-36.42,11.33-36.42,39.39v10.59c0,27.88,10.59,39.4,36.42,39.4h58.16V274h-60V251.3l-13.56,3.53-17.29,4.46-8.17,2V273c0,27.88,10.59,39.4,36.61,39.4H466c25.83,0,36.42-11.34,36.42-39.4V259.48c0-27.87-10.59-39.4-36.42-39.4H407.61V208.19c18.76.19,37.35.19,56.12.19Z" transform="translate(-66.24 -38.37)"/><path class="cls-3" d="M119.58,250.56l106.29,83.06,8.55,6.69,6.69-8.54,10.4-13.2L258.2,310l-8.55-6.69C222,281.59,194.09,260,166.4,238.3c24.53-31.6,49.06-63,73.78-94.59l6.69-8.55-8.55-6.69-14.5-11.33-8.54-6.69L208.59,119,117.72,235.32,111,243.87l8.55,6.69Z" transform="translate(-66.24 -38.37)"/><path class="cls-4" d="M119.58,250.56l106.29,83.06,8.55,6.69,6.69-8.54,10.4-13.2L258.2,310l-8.55-6.69C222,281.59,194.09,260,166.4,238.3c24.53-31.6,49.06-63,73.78-94.59l6.69-8.55-8.55-6.69-14.5-11.33-8.54-6.69L208.59,119,117.72,235.32,111,243.87l8.55,6.69Z" transform="translate(-66.24 -38.37)"/><path class="cls-3" d="M611.83,208.38v21.37L626,225.29l15.8-4.83,7.62-2.42V207.45c0-25.83-11.34-37.35-36.61-37.35H554.22c-25.83,0-36.42,11.33-36.42,39.39v10.59c0,27.88,10.59,39.4,36.42,39.4h58.17V274h-60V251.3l-13.56,3.53-17.1,4.46-8.17,2V273c0,27.88,10.59,39.4,36.6,39.4h64.11c25.83,0,36.43-11.34,36.43-39.4V259.48c0-27.87-10.6-39.4-36.43-39.4H555.9V208.19c18.58.19,37.35.19,55.93.19Z" transform="translate(-66.24 -38.37)"/><path class="cls-4" d="M611.83,208.38v21.37L626,225.29l15.8-4.83,7.62-2.42V207.45c0-25.83-11.34-37.35-36.61-37.35H554.22c-25.83,0-36.42,11.33-36.42,39.39v10.59c0,27.88,10.59,39.4,36.42,39.4h58.17V274h-60V251.3l-13.56,3.53-17.1,4.46-8.17,2V273c0,27.88,10.59,39.4,36.6,39.4h64.11c25.83,0,36.43-11.34,36.43-39.4V259.48c0-27.87-10.6-39.4-36.43-39.4H555.9V208.19c18.58.19,37.35.19,55.93.19Z" transform="translate(-66.24 -38.37)"/><path class="cls-3" d="M276.78,243.31c.93-7.43,3.53-13.38,7.81-17.47s9.85-6.13,16.72-6.13c7.06,0,12.45,2,16.54,6.32s6.32,10,7.06,17.1H276.78Zm69.69-14.86a43.78,43.78,0,0,0-9.11-16,43.28,43.28,0,0,0-14.86-10.6,51.09,51.09,0,0,0-20.63-3.9,54.89,54.89,0,0,0-22.67,4.46,50.07,50.07,0,0,0-16.72,12.08A54.62,54.62,0,0,0,252.26,232a65.16,65.16,0,0,0,0,41.25,44.11,44.11,0,0,0,10.59,17.1A53.11,53.11,0,0,0,280.69,302a70.1,70.1,0,0,0,25.45,4.28,104.34,104.34,0,0,0,17.47-1.67,177.68,177.68,0,0,0,19.14-4.28l-3.34-21.55a151.27,151.27,0,0,1-15.8,4.08,72,72,0,0,1-14.49,1.68c-10.78,0-18.58-2.23-23.6-6.51a28.57,28.57,0,0,1-9.11-17.47h72.47a31.21,31.21,0,0,0,.56-6.31c0-2.42.19-4.46.19-6.32a61.41,61.41,0,0,0-3.16-19.51Z" transform="translate(-66.24 -38.37)"/><path class="cls-5" d="M276.78,243.31c.93-7.43,3.53-13.38,7.81-17.47s9.85-6.13,16.72-6.13c7.06,0,12.45,2,16.54,6.32s6.32,10,7.06,17.1H276.78Zm69.69-14.86a43.78,43.78,0,0,0-9.11-16,43.28,43.28,0,0,0-14.86-10.6,51.09,51.09,0,0,0-20.63-3.9,54.89,54.89,0,0,0-22.67,4.46,50.07,50.07,0,0,0-16.72,12.08A54.62,54.62,0,0,0,252.26,232a65.16,65.16,0,0,0,0,41.25,44.11,44.11,0,0,0,10.59,17.1A53.11,53.11,0,0,0,280.69,302a70.1,70.1,0,0,0,25.45,4.28,104.34,104.34,0,0,0,17.47-1.67,177.68,177.68,0,0,0,19.14-4.28l-3.34-21.55a151.27,151.27,0,0,1-15.8,4.08,72,72,0,0,1-14.49,1.68c-10.78,0-18.58-2.23-23.6-6.51a28.57,28.57,0,0,1-9.11-17.47h72.47a31.21,31.21,0,0,0,.56-6.31c0-2.42.19-4.46.19-6.32a61.41,61.41,0,0,0-3.16-19.51Z" transform="translate(-66.24 -38.37)"/><path class="cls-6" d="M472.46,199.64V218l2.79-.93L491,212.28l1.49-.56v-4.27c0-21-7.25-28.62-27.88-28.62H406.12c-21,0-27.69,7.43-27.69,30.66v10.59c0,23.23,6.69,30.67,27.69,30.67H473v31.77H395.53V262.45l-2.79.75-17.1,4.46L374,268v5c0,23.23,6.88,30.67,27.88,30.67H466c21,0,27.68-7.44,27.68-30.67V259.48c0-23.23-6.69-30.66-27.68-30.66H398.87V199.46c24.53.18,49.06.18,73.59.18Z" transform="translate(-66.24 -38.37)"/><path class="cls-7" d="M472.46,199.64V218l2.79-.93L491,212.28l1.49-.56v-4.27c0-21-7.25-28.62-27.88-28.62H406.12c-21,0-27.69,7.43-27.69,30.66v10.59c0,23.23,6.69,30.67,27.69,30.67H473v31.77H395.53V262.45l-2.79.75-17.1,4.46L374,268v5c0,23.23,6.88,30.67,27.88,30.67H466c21,0,27.68-7.44,27.68-30.67V259.48c0-23.23-6.69-30.66-27.68-30.66H398.87V199.46c24.53.18,49.06.18,73.59.18Z" transform="translate(-66.24 -38.37)"/><path class="cls-6" d="M125,243.87l106.3,83.06,1.67,1.31,1.3-1.68,10.41-13.19,1.3-1.67-1.68-1.3c-30.1-23.79-60.2-47.2-90.12-70.62q39.59-50.73,79.16-101.27l1.3-1.68-1.67-1.3-14.5-11.33-1.67-1.3-1.3,1.48L124.59,240.71l-1.3,1.67,1.67,1.49Z" transform="translate(-66.24 -38.37)"/><path class="cls-7" d="M125,243.87l106.3,83.06,1.67,1.31,1.3-1.68,10.41-13.19,1.3-1.67-1.68-1.3c-30.1-23.79-60.2-47.2-90.12-70.62q39.59-50.73,79.16-101.27l1.3-1.68-1.67-1.3-14.5-11.33-1.67-1.3-1.3,1.48L124.59,240.71l-1.3,1.67,1.67,1.49Z" transform="translate(-66.24 -38.37)"/><path class="cls-6" d="M620.56,199.64V218l2.79-.93,15.8-4.83,1.48-.56v-4.27c0-21-7.25-28.62-27.87-28.62H554.22c-21,0-27.69,7.43-27.69,30.66v10.59c0,23.23,6.69,30.67,27.69,30.67h66.9v31.77H543.63V262.45l-2.79.75-17.09,4.46-1.68.37v5c0,23.23,6.88,30.67,27.88,30.67h64.11c21,0,27.69-7.44,27.69-30.67V259.48c0-23.23-6.69-30.66-27.69-30.66H547V199.46c24.71.18,49,.18,73.58.18Z" transform="translate(-66.24 -38.37)"/><path class="cls-7" d="M620.56,199.64V218l2.79-.93,15.8-4.83,1.48-.56v-4.27c0-21-7.25-28.62-27.87-28.62H554.22c-21,0-27.69,7.43-27.69,30.66v10.59c0,23.23,6.69,30.67,27.69,30.67h66.9v31.77H543.63V262.45l-2.79.75-17.09,4.46-1.68.37v5c0,23.23,6.88,30.67,27.88,30.67h64.11c21,0,27.69-7.44,27.69-30.67V259.48c0-23.23-6.69-30.66-27.69-30.66H547V199.46c24.71.18,49,.18,73.58.18Z" transform="translate(-66.24 -38.37)"/><path class="cls-6" d="M276.78,243.31c.93-7.43,3.53-13.38,7.81-17.47s9.85-6.13,16.72-6.13c7.06,0,12.45,2,16.54,6.32s6.32,10,7.06,17.1H276.78Zm69.69-14.86a43.78,43.78,0,0,0-9.11-16,43.28,43.28,0,0,0-14.86-10.6,51.09,51.09,0,0,0-20.63-3.9,54.89,54.89,0,0,0-22.67,4.46,50.07,50.07,0,0,0-16.72,12.08A54.62,54.62,0,0,0,252.26,232a65.16,65.16,0,0,0,0,41.25,44.11,44.11,0,0,0,10.59,17.1A53.11,53.11,0,0,0,280.69,302a70.1,70.1,0,0,0,25.45,4.28,104.34,104.34,0,0,0,17.47-1.67,177.68,177.68,0,0,0,19.14-4.28l-3.34-21.55a151.27,151.27,0,0,1-15.8,4.08,72,72,0,0,1-14.49,1.68c-10.78,0-18.58-2.23-23.6-6.51a28.57,28.57,0,0,1-9.11-17.47h72.47a31.21,31.21,0,0,0,.56-6.31c0-2.42.19-4.46.19-6.32a61.41,61.41,0,0,0-3.16-19.51Z" transform="translate(-66.24 -38.37)"/><path class="cls-3" d="M327.43,73.21a4.74,4.74,0,0,1,3.8,1.64A4.69,4.69,0,0,1,332,78.9V79a7.42,7.42,0,0,1-7.08,5.69h-2.74a11.32,11.32,0,0,0-7.27,2.68q-3.27,2.69-3.85,5.17h12.18A4.52,4.52,0,0,1,327,94.22a4.46,4.46,0,0,1,.82,4v.09a7.19,7.19,0,0,1-2.6,4,7,7,0,0,1-4.47,1.69H308.56l-8,36.9a6.8,6.8,0,0,1-2.6,4,7,7,0,0,1-4.47,1.69h-.15a4.46,4.46,0,0,1-3.7-1.69,4.35,4.35,0,0,1-.87-4l10.21-47.06a25.94,25.94,0,0,1,9.43-14.62,25.42,25.42,0,0,1,16.31-6.06Z" transform="translate(-66.24 -38.37)"/><path class="cls-3" d="M376.45,100.43q6.41,7.93,3.95,19.13L375.77,141a6.75,6.75,0,0,1-2.6,4,7,7,0,0,1-4.47,1.69h-.14a4.47,4.47,0,0,1-3.71-1.69,4.35,4.35,0,0,1-.87-4q-6.74,5.69-17.18,5.69-11.44,0-17.85-7.95t-4-19.13q2.46-11.19,12.32-19.13t21.32-8Q370.05,92.48,376.45,100.43Zm-32.68,8.13a19.55,19.55,0,0,0-7,11q-1.39,6.5,2.22,11.05t10.34,4.51a20.53,20.53,0,0,0,19.3-15.56q1.45-6.44-2.26-11T356.09,104A19.28,19.28,0,0,0,343.77,108.56Z" transform="translate(-66.24 -38.37)"/><path class="cls-3" d="M394.73,141a6.84,6.84,0,0,1-2.6,4,7.06,7.06,0,0,1-4.48,1.69h-.14A4.48,4.48,0,0,1,383.8,145a4.32,4.32,0,0,1-.86-4l5.58-25.71a30.3,30.3,0,0,1,28.25-22.76q9.57,0,15,6.68t3.32,16.08L429.47,141a7.67,7.67,0,0,1-7.07,5.69h-.1a4.52,4.52,0,0,1-3.75-1.69,4.35,4.35,0,0,1-.87-4l5.59-25.71a9.12,9.12,0,0,0-1.59-7.95,9,9,0,0,0-7.41-3.29,14.78,14.78,0,0,0-14,11.24Z" transform="translate(-66.24 -38.37)"/><path class="cls-3" d="M459.59,104a6.28,6.28,0,0,0-6.06,4.89,3.55,3.55,0,0,0,1.87,4.23,52.41,52.41,0,0,0,7.51,2.35c3.59,1.07,6.13,2.46,7.61,4.19q3.17,3.7,1.68,10.57a20.08,20.08,0,0,1-7.41,11.61,20.38,20.38,0,0,1-13,4.8H439.28a4.45,4.45,0,0,1-3.7-1.69,4.35,4.35,0,0,1-.87-4v-.09a7.19,7.19,0,0,1,2.6-4.05,7.09,7.09,0,0,1,4.47-1.69h13.05a6.4,6.4,0,0,0,6.06-4.89,3.26,3.26,0,0,0-1.88-3.9q-.67-.33-7.6-2.35-5.34-1.65-7.56-4.32-3.17-3.81-1.63-10.77a19.9,19.9,0,0,1,7.41-11.56,20.25,20.25,0,0,1,12.94-4.85h8.86a4.59,4.59,0,0,1,4.62,5.74v.09a6.7,6.7,0,0,1-2.65,4,6.92,6.92,0,0,1-4.47,1.69Z" transform="translate(-66.24 -38.37)"/><path class="cls-3" d="M534,92.48q11.44,0,17.85,8t4,19.13q-2.41,11.19-12.27,19.13t-21.32,7.95q-11.46,0-17.86-7.95t-4-19.13q2.44-11.19,12.32-19.13T534,92.48Zm-2.55,11.61a20.53,20.53,0,0,0-19.3,15.61q-1.39,6.45,2.21,11t10.3,4.56A20.7,20.7,0,0,0,544,119.7q1.39-6.48-2.27-11A12.55,12.55,0,0,0,531.41,104.09Z" transform="translate(-66.24 -38.37)"/><path class="cls-3" d="M593.08,73.21a4.75,4.75,0,0,1,3.81,1.64,4.69,4.69,0,0,1,.77,4.05V79a7.42,7.42,0,0,1-7.08,5.69h-2.74a11.32,11.32,0,0,0-7.27,2.68q-3.27,2.69-3.85,5.17H588.9a4.52,4.52,0,0,1,3.75,1.69,4.46,4.46,0,0,1,.82,4v.09a7.19,7.19,0,0,1-2.6,4,7,7,0,0,1-4.47,1.69H574.22l-8,36.9a6.8,6.8,0,0,1-2.6,4,7,7,0,0,1-4.47,1.69H559a4.45,4.45,0,0,1-3.7-1.69,4.35,4.35,0,0,1-.87-4l10.2-47.06A26,26,0,0,1,574,79.27a25.42,25.42,0,0,1,16.31-6.06Z" transform="translate(-66.24 -38.37)"/><rect class="cls-3" x="436.43" y="180.63" width="7" height="15"/><path class="cls-2" d="M420.68,331.15a1.33,1.33,0,0,1,1.08.47,1.41,1.41,0,0,1,.22,1.17l0,0a2.13,2.13,0,0,1-.71,1.17,2,2,0,0,1-1.28.47h-1a4.82,4.82,0,0,0-3.14,1.19,5.14,5.14,0,0,0-1.8,2.89h5.11a1.28,1.28,0,0,1,1.06.49,1.32,1.32,0,0,1,.23,1.16v0a2.13,2.13,0,0,1-.72,1.18,2,2,0,0,1-1.27.48h-5.11l-3.14,14.71a1.92,1.92,0,0,1-.72,1.16,2,2,0,0,1-1.26.49h-.06a1.32,1.32,0,0,1-1.29-1.65l3.84-18.06a9.29,9.29,0,0,1,3.28-5.24,8.8,8.8,0,0,1,5.71-2.16Z" transform="translate(-66.24 -38.37)"/><path class="cls-2" d="M439.48,341.43a8,8,0,0,1,1.41,7l-1.75,8.21a2.14,2.14,0,0,1-2,1.65h0a1.28,1.28,0,0,1-1.05-.49,1.29,1.29,0,0,1-.25-1.16l.18-.83a11.58,11.58,0,0,1-7,2.48,7.64,7.64,0,0,1-6.35-2.89,8,8,0,0,1-1.41-7,12.16,12.16,0,0,1,4.37-7,11.69,11.69,0,0,1,7.58-2.88A7.62,7.62,0,0,1,439.48,341.43Zm-12.09,2.37a8.12,8.12,0,0,0-2.87,4.6,5.34,5.34,0,0,0,.92,4.62,5,5,0,0,0,4.21,1.9,7.71,7.71,0,0,0,5-1.9,8,8,0,0,0,2.89-4.62,5.25,5.25,0,0,0-.94-4.6,5,5,0,0,0-4.18-1.91A7.75,7.75,0,0,0,427.39,343.8Z" transform="translate(-66.24 -38.37)"/><path class="cls-2" d="M446.09,356.61a2.14,2.14,0,0,1-2,1.65h-.05a1.28,1.28,0,0,1-1.05-.49,1.29,1.29,0,0,1-.25-1.16l2.11-9.87a10.1,10.1,0,0,1,3.63-5.79,9.71,9.71,0,0,1,6.3-2.4,6.33,6.33,0,0,1,5.27,2.4,6.67,6.67,0,0,1,1.17,5.79l-2.11,9.87a2,2,0,0,1-.72,1.16,2,2,0,0,1-1.26.49h0a1.3,1.3,0,0,1-1.07-.49,1.32,1.32,0,0,1-.25-1.16l2.11-9.87a4,4,0,0,0-.68-3.43,3.76,3.76,0,0,0-3.13-1.42,5.8,5.8,0,0,0-3.75,1.42,6,6,0,0,0-2.13,3.43Z" transform="translate(-66.24 -38.37)"/><path class="cls-2" d="M470.92,341.89a2.9,2.9,0,0,0-1.87.7A3.09,3.09,0,0,0,468,344.3a1.83,1.83,0,0,0,.89,2.12,23.44,23.44,0,0,0,2.92.93,5.4,5.4,0,0,1,2.65,1.48,4.16,4.16,0,0,1,.56,3.67,7.1,7.1,0,0,1-2.54,4.08,6.88,6.88,0,0,1-4.44,1.68h-4.71a1.26,1.26,0,0,1-1.05-.49,1.29,1.29,0,0,1-.25-1.16l0,0a2,2,0,0,1,.74-1.18,1.9,1.9,0,0,1,1.24-.48h4.89a2.92,2.92,0,0,0,1.88-.71,3,3,0,0,0,1.07-1.71,1.67,1.67,0,0,0-.93-2c-.18-.09-1.15-.41-2.92-.94a5.45,5.45,0,0,1-2.63-1.51,4.43,4.43,0,0,1-.55-3.76,7.12,7.12,0,0,1,2.55-4.06,6.84,6.84,0,0,1,4.44-1.69h3.32a1.26,1.26,0,0,1,1.06.48,1.35,1.35,0,0,1,.26,1.18l0,0a2.14,2.14,0,0,1-2,1.65Z" transform="translate(-66.24 -38.37)"/><path class="cls-2" d="M490.16,338.55a7.65,7.65,0,0,1,6.36,2.88,8.08,8.08,0,0,1,1.41,7,12.21,12.21,0,0,1-4.37,7,11.72,11.72,0,0,1-7.58,2.89,7.66,7.66,0,0,1-6.36-2.89,8,8,0,0,1-1.4-7,12.14,12.14,0,0,1,4.36-7A11.71,11.71,0,0,1,490.16,338.55Zm-.72,3.37a7.72,7.72,0,0,0-5,1.91,8,8,0,0,0-2.89,4.63,5.35,5.35,0,0,0,.92,4.6,5.1,5.1,0,0,0,4.22,1.91,7.66,7.66,0,0,0,5-1.91,8,8,0,0,0,2.89-4.6,5.36,5.36,0,0,0-.92-4.63A5.05,5.05,0,0,0,489.44,341.92Z" transform="translate(-66.24 -38.37)"/><path class="cls-2" d="M513.11,331.15a1.33,1.33,0,0,1,1.08.47,1.38,1.38,0,0,1,.21,1.17v0a2.13,2.13,0,0,1-.71,1.17,2,2,0,0,1-1.28.47h-1a4.8,4.8,0,0,0-3.14,1.19,5.14,5.14,0,0,0-1.8,2.89h5.1a1.29,1.29,0,0,1,1.07.49,1.32,1.32,0,0,1,.23,1.16v0a2.1,2.1,0,0,1-.73,1.18,1.91,1.91,0,0,1-1.26.48h-5.11l-3.14,14.71a2,2,0,0,1-.72,1.16,2,2,0,0,1-1.26.49h-.06a1.26,1.26,0,0,1-1-.49,1.3,1.3,0,0,1-.26-1.16l3.85-18.06a9.24,9.24,0,0,1,3.28-5.24,8.8,8.8,0,0,1,5.71-2.16Z" transform="translate(-66.24 -38.37)"/><path class="cls-2" d="M519.69,331.15a1.31,1.31,0,0,1,1.07.47,1.35,1.35,0,0,1,.23,1.17l-5.07,23.82a2.15,2.15,0,0,1-2,1.65h-.06a1.29,1.29,0,0,1-1-.49,1.32,1.32,0,0,1-.25-1.16l5.07-23.82a2.06,2.06,0,0,1,.74-1.17,1.91,1.91,0,0,1,1.25-.47Z" transform="translate(-66.24 -38.37)"/><path class="cls-2" d="M541.14,344.3a1.69,1.69,0,0,1-.22,1.27,2.1,2.1,0,0,1-1,.92l-7.29,3-7.26,3a4.92,4.92,0,0,0,4.61,2.49,7.56,7.56,0,0,0,4.08-1.24,8.59,8.59,0,0,0,3-3.15,2,2,0,0,1,1.84-1.11,1.2,1.2,0,0,1,1.19.7,1.53,1.53,0,0,1-.1,1.5,13,13,0,0,1-4.55,4.73,11.49,11.49,0,0,1-6.16,1.86,7.64,7.64,0,0,1-6.35-2.89,8,8,0,0,1-1.41-7,12.21,12.21,0,0,1,4.37-7,11.69,11.69,0,0,1,7.58-2.88,8.05,8.05,0,0,1,5,1.6A7.14,7.14,0,0,1,541.14,344.3Zm-8.45-2.38a7.73,7.73,0,0,0-5,1.91,8.14,8.14,0,0,0-2.89,4.63,8,8,0,0,0-.12,1l12.52-5.16A4.93,4.93,0,0,0,532.69,341.92Z" transform="translate(-66.24 -38.37)"/><path class="cls-2" d="M550.41,341.89a2.93,2.93,0,0,0-1.88.7,3.07,3.07,0,0,0-1.06,1.71,1.83,1.83,0,0,0,.88,2.12,24.6,24.6,0,0,0,2.93.93,5.45,5.45,0,0,1,2.65,1.48,4.16,4.16,0,0,1,.56,3.67,7.15,7.15,0,0,1-2.54,4.08,6.92,6.92,0,0,1-4.44,1.68H542.8a1.32,1.32,0,0,1-1.3-1.65v0a2.11,2.11,0,0,1,.74-1.18,1.92,1.92,0,0,1,1.25-.48h4.89a2.94,2.94,0,0,0,1.88-.71,3,3,0,0,0,1.06-1.71,1.66,1.66,0,0,0-.92-2c-.18-.09-1.15-.41-2.92-.94a5.53,5.53,0,0,1-2.64-1.51,4.39,4.39,0,0,1-.54-3.76,7.12,7.12,0,0,1,2.55-4.06,6.84,6.84,0,0,1,4.44-1.69h3.32a1.28,1.28,0,0,1,1.06.48,1.35,1.35,0,0,1,.26,1.18l0,0a2,2,0,0,1-.73,1.16,2,2,0,0,1-1.28.49Z" transform="translate(-66.24 -38.37)"/><path class="cls-2" d="M564.69,341.89a2.93,2.93,0,0,0-1.88.7,3.07,3.07,0,0,0-1.06,1.71,1.82,1.82,0,0,0,.88,2.12,23.91,23.91,0,0,0,2.93.93,5.45,5.45,0,0,1,2.65,1.48,4.16,4.16,0,0,1,.56,3.67,7.16,7.16,0,0,1-2.55,4.08,6.88,6.88,0,0,1-4.44,1.68h-4.71a1.26,1.26,0,0,1-1-.49,1.3,1.3,0,0,1-.26-1.16l0,0a2.06,2.06,0,0,1,.74-1.18,1.92,1.92,0,0,1,1.25-.48h4.89a2.9,2.9,0,0,0,1.87-.71,3,3,0,0,0,1.07-1.71,1.67,1.67,0,0,0-.92-2c-.18-.09-1.16-.41-2.92-.94a5.48,5.48,0,0,1-2.64-1.51,4.39,4.39,0,0,1-.54-3.76,7.1,7.1,0,0,1,2.54-4.06,6.88,6.88,0,0,1,4.44-1.69h3.33A1.28,1.28,0,0,1,570,339a1.35,1.35,0,0,1,.25,1.18l0,0a2,2,0,0,1-.72,1.16,2,2,0,0,1-1.28.49Z" transform="translate(-66.24 -38.37)"/><path class="cls-2" d="M571.65,356.7a1.78,1.78,0,1,1,3,1.26,1.79,1.79,0,0,1-2.52,0A1.72,1.72,0,0,1,571.65,356.7Z" transform="translate(-66.24 -38.37)"/><path class="cls-2" d="M592.73,339a1.19,1.19,0,0,1,.81,1.57v.09a2.07,2.07,0,0,1-.94,1.31,1.72,1.72,0,0,1-1.54.26,5.55,5.55,0,0,0-1.93-.33,7.75,7.75,0,0,0-5,1.91,8.07,8.07,0,0,0-2.88,4.63,5.35,5.35,0,0,0,.92,4.6,5.1,5.1,0,0,0,4.22,1.91,6.78,6.78,0,0,0,2-.31,1.48,1.48,0,0,1,1.44.24,1.27,1.27,0,0,1,.38,1.33,2,2,0,0,1-1.5,1.57,10.47,10.47,0,0,1-3.06.46,7.66,7.66,0,0,1-6.36-2.89,8,8,0,0,1-1.4-7,12.14,12.14,0,0,1,4.36-7,11.71,11.71,0,0,1,7.58-2.88A8.55,8.55,0,0,1,592.73,339Z" transform="translate(-66.24 -38.37)"/><path class="cls-2" d="M606.36,338.55a7.62,7.62,0,0,1,6.35,2.88,8,8,0,0,1,1.41,7,12.16,12.16,0,0,1-4.37,7,11.7,11.7,0,0,1-7.58,2.89,7.63,7.63,0,0,1-6.35-2.89,8,8,0,0,1-1.41-7,12.16,12.16,0,0,1,4.37-7A11.69,11.69,0,0,1,606.36,338.55Zm-.72,3.37a7.73,7.73,0,0,0-5,1.91,8.14,8.14,0,0,0-2.89,4.63,5.41,5.41,0,0,0,.92,4.6,5.1,5.1,0,0,0,4.23,1.91,7.63,7.63,0,0,0,5-1.91,7.93,7.93,0,0,0,2.89-4.6,5.33,5.33,0,0,0-.92-4.63A5,5,0,0,0,605.64,341.92Z" transform="translate(-66.24 -38.37)"/><path class="cls-2" d="M618.78,356.61a2,2,0,0,1-.73,1.16,2,2,0,0,1-1.26.49h0a1.26,1.26,0,0,1-1-.49,1.29,1.29,0,0,1-.25-1.16l2.11-9.92a10.11,10.11,0,0,1,3.61-5.76,9.62,9.62,0,0,1,6.26-2.38,6.11,6.11,0,0,1,5.8,3.21,9.7,9.7,0,0,1,7.14-3.21,6.33,6.33,0,0,1,5.26,2.38,6.65,6.65,0,0,1,1.15,5.76l-2.11,9.92a2.12,2.12,0,0,1-2,1.65h0a1.24,1.24,0,0,1-1-.49,1.29,1.29,0,0,1-.25-1.16l2.11-9.92a3.86,3.86,0,0,0-.69-3.4,3.7,3.7,0,0,0-3.1-1.4,5.7,5.7,0,0,0-3.7,1.4,6,6,0,0,0-2.13,3.4l-2.11,9.92a2,2,0,0,1-.72,1.16,2,2,0,0,1-1.27.49h0a1.32,1.32,0,0,1-1.32-1.65l2.11-9.92a3.86,3.86,0,0,0-.69-3.4,3.67,3.67,0,0,0-3.08-1.4,5.69,5.69,0,0,0-3.7,1.4,6,6,0,0,0-2.13,3.4Z" transform="translate(-66.24 -38.37)"/></svg>